<?xml version="1.0" encoding="utf-8"?>
<!-- Generator: Adobe Illustrator 23.0.5, SVG Export Plug-In . SVG Version: 6.00 Build 0)  -->
<svg version="1.1" xmlns="http://www.w3.org/2000/svg" xmlns:xlink="http://www.w3.org/1999/xlink" x="0px" y="0px"
	 viewBox="0 0 2000 2000" style="enable-background:new 0 0 2000 2000;" xml:space="preserve">
<style type="text/css">
	.st0{display:none;fill:none;stroke:#000000;stroke-width:22;stroke-linecap:round;stroke-linejoin:round;stroke-miterlimit:10;}
</style>
<g id="Layer_1">
	<path class="st0" d="M1354.9,814.9c0,0,75.3-101.7,81.4-181.4c0,0-32.2,39.3-36.8,39.3c-4.6,0,15.8-117.4,6.6-133.1
		c-9.2-15.7-17-31.7-20.4-48c-3.4-16.3-31-95.7-50.4-108.3c0,0-5.8,44.6-14.6,28.9c-6.8-12-25.4-54.3-33-54.8
		c-7.7-0.5-23.7,19.6-23.7,19.6s-8.9-9.6-8.6-20.6c0.3-11-3.7-18.3-11.3-17c-7.7,1.3-30.1,17.7-30.1,17.7s-0.3-53.6-3.8-60.3
		s-29.1,6.1-50,19.4c-20.9,13.3-45.6-9.8-48-26.6c-5.1-35.7-24.9-14.6-28.1-7.7c-4.6,10-32.2-23-32.2-23"/>
	<g>
		<path d="M1177.6,991.2c-22.2,31.1-12.5,87.6-12.5,87.6s6.5,36.3,20.1,36.8c9,0-8.7-71.8,3.4-92.8c1-1.8,3.4-2.1,4.9-0.8
			c5.4,5,20.5,15.8,47.7,13.9c27.6-2,33.8-21.1,35.1-29.3c0.3-2.1,2.5-3.5,4.5-2.9c4.2,1.2,11.6,4.1,23.2,11.6
			c19.4,12.6,24.5-2.7,24.5-2.7s3.4-5.4-10.6-14s-44.9-17.7-75.6-13.3s-44.3,22.8-44.3,22.8s12.7-30,63.5-37.9
			c50.8-7.9,74,0.5,80.9,0c6.9-0.5,11.7-0.5,12.3-14s-0.5-37.5-50.6-37.5C1254.2,918.7,1199.8,960.1,1177.6,991.2z"/>
		<path d="M1023.6,950.6c-16.9,5.6-87.3,13.8-87.3,13.8s-20.9,2.8-39.8,5.1s-33.4,9.7-54.6,22c-21.2,12.3-44.7,38.3-33.2,40.1
			c11.5,1.8,31.1-4.9,46.2-8.4c15.1-3.6,34-6.4,67.4-9.2c18.6-1.6,28.4-0.2,33.4,1.2c1.7,0.5,1.8,3,0,3.6c-9.3,3.1-25.7,12-43.9,20
			c-10.3,4.6-31,12.1-49.9,18.8c-9.5,3.3-7.7,17.2,2.3,18.2c24.8,2.3,52.8,4.7,62,4.7c17.6,0,43.1-0.8,48.5-8.4
			c5.4-7.7,2.8-24.3,6.9-32.4c4.1-8.2,13-2.3,13-2.3s15.3,10.3,24,18c8.7,7.7,13.4,13.8,21.3,4.3c7.8-9.5-2.9-15.7-2.9-15.7
			l-47.5-31c-2.3-1.5-1.2-5,1.5-5c11,0,28.9-0.2,36.8-0.9c11.7-1,32.2-14.8,30.1-38.3C1055.8,945,1040.5,945,1023.6,950.6z"/>
		<path d="M973.8,1092.7c-15.5,7.4-25.7,18.4-22.8,24.4s17.8,4.9,33.3-2.6c15.5-7.4,25.7-18.4,22.8-24.4
			C1004.2,1084.1,989.3,1085.2,973.8,1092.7z"/>
		<path d="M1436.2,624.3c-4.6-1-18.8,15.8-18.8,15.8s2.5-121.6,0.7-153.4c-0.2-3.1-3.3-5.2-6.2-4.2c-6.3,2.3-16.6,2.9-21.7-12.9
			c-7.7-24-23.5-57.2-28.1-62.3c0,0-24.5-36.8-31.1-37.8c-6.6-1-7.1,12.3-15.8,6.1c-8.7-6.1-13.3-34.2-24.5-35.2
			c-11.2-1-18,14.5-23.5,15.1c-5.4,0.7,1.4-22.5-3.1-27.9c-4.4-5.4-42.9,7.8-42.2,0c0.7-7.8,10.9-24.9,4.4-35.4
			c-6.5-10.6-33-10.9-54.8,3.7c0,0-16.5,11.6-20.4,11.6c-3.9,0-11.2-15.3-23.5-16.3c-12.3-1-9.9-33.7-24.2-36.1
			c-14.3-2.4-13.6,7.5-18.4,10.6s-21.4-6.8-31.3-17c-9.9-10.2-18-16.3-26.9-16c-8.9,0.3-3.4,17.7-10.6,19.1s-42.6-30-68.4-30
			s-17,19.1-20.8,22.1c-3.7,3.1-27.9-21.4-41.2-24.9s-2,39.5-9.2,43.2c-7.1,3.7-47.3-33.4-73.2-32.7c-25.9,0.7-28.6,13.6-21.8,21.4
			c6.8,7.8,18,26.2,12.9,28.6c-5.1,2.4-25.5-16-34-22.1c-8.5-6.1-19.7-13.6-31.7-10.2s-11.9,28.9-11.9,28.9s-16.3-14.6-27.6-11.9
			c-11.2,2.7-19.4,53.4-19.4,53.4s-35.4-41.9-50.7-40.9c-15.3,1-13.6,51.4-13.6,51.4s-50.7-25.2-84.1-19.4s-5.1,27.2-5.1,27.2
			l24.9,21.4c0,0-54.5-6.8-56.5,10.9c-2,17.7,11.2,23.8,7.8,40.9c-3.4,17-6.1,24.5-18.7,19.7c-12.6-4.8-36.4-12.9-36.1,10.2
			c0.3,23.1,3.1,64.7,3.1,64.7l-34.4-3.7c0,0,6.1,52.4,2.4,57.2c-3.7,4.8-24.5,1.7-24.5,1.7v25.1c0,0-19.3,0-20.1,17.6
			c-0.8,17.6,12.3,40.3,18.9,43.9c0,0-24-5.6-38.8-2c-14.8,3.6-16.3,16.3-9.2,26.6c7.1,10.2,35.2,50.6,35.2,56.7
			c0,6.1-20.7-4.9-36-4.1c-15.3,0.8-28.2,45.2,6.1,75.1c34.3,29.9,29.9,31.4,29.9,31.4s-32.2-3.1-30.6,11.5
			c1.5,14.6,38.8,36.8,35.1,43.7s-33.6-1.5-33.6,9.2s3.1,38.8,28.3,53.9c0,0-10.7,5.1-13.8,16.6c-3.1,11.5,47.7,101.9,46.7,127.9
			c-1,26,4.6,52.6,18.4,67.4c13.8,14.8,23.5,26,23.5,34.2c0,8.2,16.3,28.6,38.3,42.9c22,14.3,41.4,25.5,41.4,25.5s11.2,7.1,19.9,7.7
			c8.7,0.5,10.7,1.5,22.5,10.2c11.7,8.7,25,22,32.7,24c7.7,2,5.6,6.6,0,17.4c-4.5,8.5-4.5,20.9-4.3,30.3c0.1,8.2,1.7,16.6,6.1,23.5
			c3.6,5.7,8.9,10.1,14.5,13.7c13.6,8.7,28.4,10.9,44,11.8c7.7,34.9,23.8,71,49,109.5c33.7,51.6,80.4,79,82.3,80.1l0.3,0.2
			l137.2,66.6l5.5,2.1c12.5,8.2,29.4,21.7,38.6,29.2c4.4,3.6,9.8,5.7,15.4,6l11.4,0.7c2.2,0.1,4.4,0.6,6.5,1.4
			c22,8.6,153.5,60,169,59c16.9-1,28.6-14.3,28.6-14.3s27.3-28.4,49.6-51.3c30.8-27.9,64.3-58.6,81.4-75.5c5.9-5.2,10.5-9.5,13-12
			c9.7-10.2,15.3-35.7,18.9-57.2c0.3-1.5,0.5-3.1,0.7-4.7c1.8-8.1,3.7-17.3,5.7-27.7c4.7-25.1,11.8-49.8,21.1-73.3l24.2-61.4
			l0.1-0.3c7.3-20.2,10.8-41.4,10.4-63.1c-2.4-137.1-34.6-340.1-34.9-342.1c-0.8-5-13-83.2-26.8-154.6c16.8-22,52.4-71.2,65.5-109.3
			C1449.5,658,1440.8,625.3,1436.2,624.3z M602.9,1278.4c-17.4-12.8-48.5-49.5-57.2-82.2s-24-106.2-21.4-143c0,0,1-8.2,4.9-8.2
			c3.8,0,7.1,11.7,6.4,41.4c-0.8,29.6,1.3,64.9,31.4,69.2c0,0,0.3,33.7,9.7,46.7c9.4,13,28.1,39.6,43.7,28.9
			c15.6-10.7-22.7-33.7-26-49c-3.3-15.3,2-31.4,11-40.6c8.1-8.3,32.3-9.5,40.6,20.5c0.6,19.2,2.6,74.2,4.8,124.6
			C639.4,1287.5,615.9,1288,602.9,1278.4z M562.9,1055.5c10.6,2.4,36.4,36.1,33.4,51.4c-3.1,15.3-27.6,37.1-27.6,37.1l-9.2-58.6
			C559.5,1085.4,552.3,1053.1,562.9,1055.5z M642.2,1335.8c-3,0-5.4-4.2-5.4-9.4c0-5.2,2.4-9.4,5.4-9.4c3,0,5.4,4.2,5.4,9.4
			C647.5,1331.5,645.1,1335.8,642.2,1335.8z M1160.5,1412.2c43.9,0,78.6-26.9,92.7-39.7c3.4-3.1,8.9-1.6,10.3,2.8
			c13.9,44.3,18.4,132.1,19.4,158.1c0.2,4.7-1.8,9.2-5.5,12.2l-46.3,37.9c-2.5,2-6.2,1.5-7.9-1.2c-3.1-4.6-7.8-12.3-11.8-22.1
			c-6.8-16.3-17-44.6-40.5-44.6c-23.5,0-32,25.9-32,25.9l-18.6,60.1c-1.1,3.6-5.3,5.3-8.7,3.5l-94.7-52.9c-3.2-1.8-5.2-5.1-5.3-8.7
			c-1.3-38.8-20.7-139.2-21.1-141.5c0,0,0,0,0,0C1015.6,1402,1102.8,1412.2,1160.5,1412.2z M1031,1382c0-1.3,2.7-2.4,6-2.4
			s6,1.1,6,2.4c0,1.3-2.7,2.4-6,2.4S1031,1383.3,1031,1382z M1072,1384.4c0-2.5,3.2-4.5,7.2-4.5c4,0,7.2,2,7.2,4.5
			c0,2.5-3.2,4.5-7.2,4.5C1075.2,1388.9,1072,1386.9,1072,1384.4z M1163.6,1317.5c-1-18.6,0.5-27.1,4.3-26.8
			c4.8,0.3,5.4,11.9,8.5,26.6c3.1,14.6,7.8,14,8.9,18.4s-19.1,7.5-19.1,7.5c-19.4,2.5-42.9,6.2-46.5,6.7c0,0-0.1-0.1,0-0.1
			C1124.4,1348.3,1164.5,1335,1163.6,1317.5z M1162,1379.4c0,5.7-3.5,10.3-7.7,10.3c-4.3,0-7.7-4.6-7.7-10.3
			c0-5.7,3.5-10.3,7.7-10.3C1158.6,1369.1,1162,1373.7,1162,1379.4z M1123.7,1381.6c0,4.5-3.1,8.2-6.8,8.2s-6.8-3.7-6.8-8.2
			s3.1-8.2,6.8-8.2S1123.7,1377.1,1123.7,1381.6z M1186.7,1373.8c0-4.5,2.5-8.2,5.7-8.2c3.1,0,5.7,3.7,5.7,8.2s-2.5,8.2-5.7,8.2
			C1189.2,1382,1186.7,1378.3,1186.7,1373.8z M1222.8,1359.9c1.6-2.8,4.4-4.4,6.1-3.4s1.8,4.1,0.1,6.9c-1.6,2.8-4.4,4.4-6.1,3.4
			C1221.2,1365.9,1221.2,1362.8,1222.8,1359.9z M1406.4,1314.9c0.3,18.9-2.7,37.4-9.1,55.1l-24.1,61.3c-4,10.2-7.7,20.7-10.9,31.3
			c-4.3-27.3-12.3-71.4-24.6-116.2c-16.3-59.3-79.7-89.6-102.3-98.6c0,0,0,0,0-0.1c11.8-7.9,21.5-21.1,22.3-45.5
			c0.2-6.1-4.6-11.2-10.6-11.4c-6.1-0.2-11.2,4.6-11.4,10.6c-0.8,23.7-12.5,29.5-25.4,33.8c-9.5,3.2-16.2,10.5-22,17
			c-7.5,8.3-12.5,13.3-20.4,13.9c-11.1,0.8-18.2-3.3-27.3-8.4c-5.6-3.2-11.4-6.5-18.4-8.7c-8.5-2.7-17-2.1-25.3-1.4
			c-11.8,0.9-23,1.7-36.1-6c-13-7.6-14.7-20.4-13.8-30c0.6-6-3.5-11.6-9.5-12.4c-6.2-0.8-11.8,3.6-12.4,9.8
			c-1,9.5-0.8,31.7,17.8,46.9c5.1,4.7,10.5,7,10.9,15.9c0.5,12.8-82.9,37.3-107.9,54.1c-25,16.9-24.5,54.6-24.5,54.6
			s3.6,81.7,2.3,126.1c-1.3,43.7,13.3,118.4,13.8,120.7c0,0,0,0,0,0l-55.1-17.2l-80.8-39.2c-3.9-2.4-45.2-27.9-74.6-72.9
			c-28.8-44.1-44.9-84.3-49.3-122.9c-3.9-34.2-9.8-211.5-10.1-220.4c0.1-3.8,1.8-46.5,17-74.3c1.2-2.1,2.4-4.4,3.8-6.9
			c19.1-34.5,54.7-98.7,51.7-154.3c-3-55.1-1-186.8-1-188.2l0-0.1l0-0.1c-0.1-12.1,3.9-47,23.8-63.1c16.8-13.6,56.8-8,86-4
			c12.9,1.8,24.1,3.4,32.7,3.4c14.2,0,35.4-6.2,59.9-13.4c27-7.9,57.7-16.9,75.7-15.7c13.9,0.9,27.3,5.8,41.5,11
			c20.4,7.5,41.5,15.2,67.5,12.8c36.2-3.4,89.8-30,107.8-39.4c17.6,12.6,74.1,55.9,89.3,103.8c18.9,59.8,48.3,247.7,48.6,249.6
			C1372.1,977.9,1404,1179.3,1406.4,1314.9z M1415.1,689.5c-14.6,33.3-44.4,80.8-54.7,96.9c-5.6-27-11.3-51-16.3-66.8
			c-15.3-48.4-64.3-90.3-89.1-108.9c-6.9-9.1-9.7-17.3-10.3-21.8c-1-7.7-0.8-46.2-10.2-42.6c-9.4,3.6-8.7,31.9-20.7,50.6
			c-4.4,6.8-12.3,14.4-20.7,20.9c-9.2,4.2-19.5,8.5-29.7,12.2c1.7-10.5,9-36.5,12.4-49.9c3.8-15.3,4.6-42.1-3.3-42.6
			s-16.1,19.4-17.4,38.3s-16.6,56.9-25.8,54.4c-9.2-2.6-3.1-59.2-7.1-60.8c-4.1-1.5-8.2,0.5-11.2,11.2c-3.1,10.7-4.1,52.1-16.3,53.6
			c-12.3,1.5-32.2-28.6-42.4-49.5c-10.2-20.9-25-3.6-22.5,17.9c2.6,21.4-23,13.8-43.4-4.1c-20.4-17.9-24-10.7-18.4,11.2
			c1.6,6.2,0.2,11-2.7,14.7c-9.9,2.6-20.1,5.6-30.1,8.5c-8.9,2.6-18,5.3-26.3,7.4c-46,3.6-67.9-5.5-114.9-10.2
			c-56.9-5.8-69.1,0-71.5,5.1s-0.7,10.9,11.9,15.7c12.6,4.8-1.4,13.6-22.1,31.3c-20.8,17.7-52.1,24.5-38.8,35.1
			c13.3,10.6,44.9-7.5,44.9-7.5c-3.4,20.8-52.8,70.5-38.5,75.6c14.3,5.1,34-19.4,34-19.4c-2.7,14.6-9.2,39.1-22.8,58.2
			s-12.3,30-3.1,29.3c9.2-0.7,22.3-15.1,22.3-15.1c7,12.6-6.5,42.3-18.7,54s-20.4,23.2-14.6,30.9c5.9,7.7,18.6-0.3,26.8-9.4
			c7.1-8,12.2-6,13.5-5.3c0.2,4.4,0.3,8.5,0.6,12.3c1.8,32.9-12.7,71-27.8,102.3c-8.3,13.6-17.1,28.7-24.9,47c0,0,0,0,0,0
			c-2.8,5.1-5.2,10.6-7.3,16.2c-16.3,34-25.1,33.5-38.9,6.2c-15.7-31-41.5-72.9-69.4-76.9c-27.9-4.1-45.6,16-49.7,29.3
			s6.8,67.1,14.6,115.7c7.8,48.7,28.3,76.9,21.1,80.3c-7.1,3.4-40.2-24.2-51.4-33.7c-11.2-9.5-12.3-16-15.3-25.2
			c-3.1-9.2-31.7-36.8-36.1-44.3s-2.7-9.9,11.2-12.9s7.8-15-3.7-24.9s-17-25.5-17-25.5s-28.9-78.6-34-95.7
			c-5.1-17,8.5-12.3,11.6-24.5s-21.4-21.4-31.3-33.7c-9.9-12.3,5.5-13.6,43.2-10.9c37.8,2.7,6.8-20.4,6.8-20.4l-36.1-31.7
			c0,0,40.2-10.6,3.1-40.9c-37.1-30.3-40.5-47-40.2-60.3c0.3-13.3,26.6-1.7,49.7,0.3s18-25.9-9.9-52.1c-27.9-26.2-23.1-30.6-21.8-34
			c1.4-3.4,34.7,6.5,47.7,6.8c12.9,0.3,21.1-6.5,20.8-15c-0.3-8.5-42.9-30.3-38.8-46c4.1-15.7,42.6,17.7,68.8,38.1
			s53.4,20.1,55.5,12.6s-3.4-11.9-38.1-30.3c-34.7-18.4-38.8-32.7-38.8-32.7s78,14.6,80.3-2s-42.9-15-66.4-19.1
			c-23.5-4.1-30.3-40.2-27.2-50c3.1-9.9,25.9,8.5,36.1,5.1c10.2-3.4,6.1-22.8,1.4-30c-4.8-7.1-6.8-20.1-5.8-43.2
			c1-23.1,8.9-11.9,19.4-4.1c10.6,7.8,18.4-2,22.5-11.2c4.1-9.2,13.6-4.8,12.7,8.9s3.7,30.6,12.5,31c8.9,0.3,9.5-11.2,9.2-23.1
			c-0.3-11.9-6.1-53.8-14-64.7c-7.8-10.9-12.6-26.6,0-24.5c12.6,2,37.4,35.7,56.5,24.2c19.1-11.6-19.7-49.4-22.1-59.9
			c-2.4-10.6,12.9-5.1,33.7,7.5c20.8,12.6,47.3,38.5,59.2,30.6c11.9-7.8-14.6-25.2-17-34.4c-2.4-9.2,1.7-34,1.7-34
			s34.7,62.3,47.3,59.2c12.6-3.1,10.6-71.5,21.8-70.8c11.2,0.7,16.7,20.1,29.6,17s4.8-33.4,10.2-39.8c5.4-6.5,27.2,14.3,27.2,14.3
			s31,28.6,38.8,32s17.7,4.4,20.4-13.6s-5.8-36.1-12.9-43.2c-7.1-7.1-5.8-11.9,6.1-8.9c11.9,3.1,56.9,41.2,68.1,37.4
			c11.2-3.7,7.5-35.4,15.7-34.7s19.4,19.4,34.4,17c15-2.4-1.7-32.3,11.2-32.7c12.9-0.3,38.5,25.5,54.5,39.5s23.5,15.3,29.6,11.2
			c6.1-4.1-0.7-24.9,9.2-24.2s22.8,27.2,32,27.2c9.2,0,10.9-7.1,17.7-6.8c6.8,0.3,11.2,14,11.2,14s14,30.6,35.1,29.3
			c21.1-1.4,41.5-19.1,54.5-24.5c12.9-5.4,6.1,15,6.1,15s-7.1,41.9,5.8,42.9c12.9,1,18-12.3,26.9-15.7s10.2,2.4,10.2,11.2
			c0,8.9,13.6,33.4,21.1,31.7s17.4-24.9,23.1-19.7s25.5,50.4,35.4,53.8s4.1-8.9,15.3-6.1c11.2,2.7,25.5,37.4,29.3,60.3
			c3.7,22.8,12.3,35.1,19.4,46.3s8.5,33,8.5,33s1.4,65-4.8,95.3c-3.6,17.9,6.8,21.3,15.9,21.1
			C1413.6,678.8,1417.3,684.4,1415.1,689.5z"/>
		<path d="M1317.4,492.6c-10.2-3.1-13.4,13.3-13.4,13.3s-3.1,27.6-14.8,35.7c-11.7,8.2-19.2,24.7-17.5,29.3s15.3-1.9,23.5,3.2
			s16.5,9,21.1,1.5c4.6-7.5,9.9-18.6,10.6-34.7C1327.5,524.7,1327.6,495.6,1317.4,492.6z"/>
		<path d="M936.3,449.2c1-24.2-1-50-13.3-50.4c-12.3-0.3-33.2,25.9-33.2,25.9H875c-5.5,0-10.8,2.1-14.8,5.9
			c-34.7,33.5-25.9,68.7-23,96.2c3.1,29.1,23.5,53.1,31.1,44.4c7.7-8.7-4.6-23-8.7-39.3c-4.1-16.3-7.1-64.9,2.6-67.4
			c9.7-2.6,8.2,24,18.8,47c10.6,23,30.3,32.7,41,28.6c10.7-4.1,0-13.8,0-13.8s-15.8-9.7-26-40.9c-8.1-24.7,9.5-46.1,17.1-54
			c1.3-1.3,3.5-0.5,3.6,1.3c0.4,7.4,1.2,22.4,2,34.4c1,16.7,17.4,37.8,25.5,31.7c8.2-6.1,0-16,0-16S935.3,473.3,936.3,449.2z"/>
		<path d="M785.8,479.3c-1.2-4-4.6-6.9-8.8-7.6c-4.1-0.7-8.3,1.1-10.7,4.5c-21,29.5-17.7,54.9-11.3,71c6.7,16.9,18.1,26.8,19.3,27.9
			c2.1,1.7,4.6,2.6,7.1,2.6c3.1,0,6.2-1.3,8.4-3.9c3.9-4.6,3.3-11.6-1.3-15.5c-0.1-0.1-8.7-7.6-13.4-20c-3.5-9.3-3.9-18.9-1.2-28.7
			c5.9,13.2,14.6,29.5,25.8,41.9c4.1,4.5,11,4.9,15.5,0.8c4.5-4.1,4.9-11,0.8-15.5C797.3,515.8,785.9,479.6,785.8,479.3z"/>
		<path d="M646.2,409.7c-3.9-1.1-8.1,0.1-10.9,3c-2.8,3-3.7,7.2-2.4,11.1c6.3,18.7,15.5,53.2,12.9,66.2c-1.2,6,2.7,11.7,8.7,12.9
			c0.7,0.1,1.4,0.2,2.1,0.2c5.2,0,9.8-3.6,10.8-8.9c2.6-13-1.6-34.4-6-51.5c12.8,10.6,21.6,23.9,21.7,24.1h0
			c3.3,5.1,10.1,6.5,15.2,3.2c5.1-3.3,6.5-10.1,3.2-15.2C700.5,453.4,677.4,418.4,646.2,409.7z"/>
		<path d="M668.9,537.4c-16.5-23.4-40.9-52.2-63.1-56.1c-3.3-0.6-6.6,0.4-9.1,2.5c-2.5,2.2-3.9,5.3-3.8,8.6
			c0.5,15.1,0.8,31.3,0.9,43.5c-8.3-5.7-20.4-13.7-38-25.1c-4.1-2.6-9.4-2.3-13.1,0.8c-3.7,3.1-4.9,8.3-3,12.8
			c5.6,12.9,20.6,48,23.1,55.7c7.2,22.2,45.7,62.1,50.1,66.6c2.2,2.2,5,3.3,7.9,3.3c2.8,0,5.5-1,7.7-3.1c4.3-4.2,4.4-11.2,0.2-15.6
			c-15.1-15.5-40.7-44.9-44.9-58c-1.4-4.2-5.3-13.8-9.6-24.1c10.8,7.2,19.3,13,21.6,15c2.9,3.3,7.4,4.6,11.7,3.2
			c7.5-2.4,8-9.9,8.1-12.7c0.1-1.9,0.2-4.6,0.2-8c0.1-5.5,0-13.1-0.1-22.6c-0.1-4.8-0.2-9.7-0.3-14.1c10.3,8,23.1,22.2,35.6,40
			c0.4,0.6,0.7,1,0.8,1.1c3.6,4.9,10.6,5.9,15.4,2.2c4.9-3.6,5.9-10.5,2.2-15.4C669.3,538,669.2,537.8,668.9,537.4z"/>
		<path d="M580.4,785.9c-21.2-5.4-19.9-14-19.7-22.5s-13.8-18.6-32.2-30.4s26.8-10.2,50.8-17.4s23.5-26,23.5-26
			c-14.3,8.9-82.7,7.7-103.4,11.2s-11,23.5-3.1,29.1c7.9,5.6,11.2,14.8,14.8,31.7s38,35.2,58,43.9c19.9,8.7,56.7,4.9,53.9-4.3
			C620.2,792.1,601.6,791.3,580.4,785.9z"/>
	</g>
</g>
<g id="Layer_2">
</g>
</svg>
