<?xml version="1.0" encoding="utf-8"?>
<!-- Generator: Adobe Illustrator 23.0.5, SVG Export Plug-In . SVG Version: 6.00 Build 0)  -->
<svg version="1.1" id="Layer_1" xmlns="http://www.w3.org/2000/svg" xmlns:xlink="http://www.w3.org/1999/xlink" x="0px" y="0px"
	 viewBox="0 0 1920 1080" style="enable-background:new 0 0 1920 1080;" xml:space="preserve">
<style type="text/css">
	.st0{fill:#F9DA49;}
	.st1{fill:#FFFFFF;}
	.st2{fill:#367CC9;}
	.st3{fill:#DD3B35;}
</style>
<g>
	<path class="st0" d="M980.1,911.7c-2.5-6.3,0.5-13.4,6.8-15.9l0,0c6.3-2.5,13.4,0.5,15.9,6.8l0,0c2.5,6.3-0.5,13.4-6.8,15.9l0,0
		c-1.5,0.6-3,0.9-4.5,0.9l0,0C986.6,919.3,982,916.4,980.1,911.7z M920.4,917c-6.3-2.5-9.3-9.6-6.8-15.9l0,0
		c2.5-6.3,9.6-9.3,15.9-6.8l0,0c6.3,2.5,9.3,9.6,6.8,15.9l0,0c-1.9,4.8-6.5,7.7-11.3,7.7l0,0C923.4,917.9,921.9,917.6,920.4,917z
		 M1013.4,898.3c-2.5-6.3,0.5-13.4,6.8-15.9l0,0c6.3-2.5,13.4,0.5,15.9,6.8l0,0c2.5,6.3-0.5,13.4-6.8,15.9l0,0
		c-1.5,0.6-3,0.9-4.5,0.9l0,0C1019.9,906,1015.3,903.1,1013.4,898.3z M887.1,903.7c-6.3-2.5-9.3-9.6-6.8-15.9l0,0
		c2.5-6.3,9.6-9.3,15.9-6.8l0,0c6.3,2.5,9.3,9.6,6.8,15.9l0,0c-1.9,4.8-6.5,7.7-11.3,7.7l0,0C890.2,904.5,888.6,904.3,887.1,903.7z
		 M1046.6,884.9c-2.5-6.3,0.5-13.4,6.8-15.9l0,0c6.3-2.5,13.4,0.5,15.9,6.8l0,0c2.5,6.3-0.5,13.4-6.8,15.9l0,0
		c-1.5,0.6-3,0.9-4.6,0.9l0,0C1053.1,892.6,1048.5,889.7,1046.6,884.9z M853.9,890.3c-6.3-2.5-9.3-9.6-6.8-15.9l0,0
		c2.5-6.3,9.6-9.3,15.9-6.8l0,0c6.3,2.5,9.3,9.6,6.8,15.9l0,0c-1.9,4.8-6.5,7.7-11.3,7.7l0,0C856.9,891.2,855.4,890.9,853.9,890.3z
		 M1079.9,871.5c-2.5-6.3,0.5-13.4,6.8-15.9l0,0c6.3-2.5,13.4,0.5,15.9,6.8l0,0c2.5,6.3-0.5,13.4-6.8,15.9l0,0
		c-1.5,0.6-3,0.9-4.6,0.9l0,0C1086.4,879.2,1081.8,876.3,1079.9,871.5z M820.6,876.9c-6.3-2.5-9.3-9.6-6.8-15.9l0,0
		c2.5-6.3,9.6-9.3,15.9-6.8l0,0c6.3,2.5,9.3,9.6,6.8,15.9l0,0c-1.9,4.8-6.5,7.7-11.3,7.7l0,0C823.6,877.8,822.1,877.5,820.6,876.9z
		 M1113.1,858.2c-2.5-6.3,0.5-13.4,6.8-15.9l0,0c6.3-2.5,13.4,0.5,15.9,6.8l0,0c2.5,6.3-0.5,13.4-6.8,15.9l0,0
		c-1.5,0.6-3,0.9-4.5,0.9l0,0C1119.6,865.8,1115,862.9,1113.1,858.2z M787.3,863.5c-6.3-2.5-9.3-9.6-6.8-15.9l0,0
		c2.5-6.3,9.6-9.3,15.9-6.8l0,0c6.3,2.5,9.3,9.6,6.8,15.9l0,0c-1.9,4.8-6.5,7.7-11.3,7.7l0,0C790.4,864.4,788.8,864.1,787.3,863.5z
		 M1146.4,844.8c-2.5-6.3,0.5-13.4,6.8-15.9l0,0c6.3-2.5,13.4,0.5,15.9,6.8l0,0c2.5,6.3-0.5,13.4-6.8,15.9l0,0
		c-1.5,0.6-3,0.9-4.5,0.9l0,0C1152.9,852.5,1148.3,849.6,1146.4,844.8z M754.1,850.2c-6.3-2.5-9.3-9.6-6.8-15.9l0,0
		c2.5-6.3,9.6-9.3,15.9-6.8l0,0c6.3,2.5,9.3,9.6,6.8,15.9l0,0c-1.9,4.8-6.5,7.7-11.3,7.7l0,0C757.1,851.1,755.6,850.8,754.1,850.2z
		 M1179.6,831.4c-2.5-6.3,0.5-13.4,6.8-15.9l0,0c6.3-2.5,13.4,0.5,15.9,6.8l0,0c2.5,6.3-0.5,13.4-6.8,15.9l0,0
		c-1.5,0.6-3,0.9-4.6,0.9l0,0C1186.1,839.1,1181.6,836.2,1179.6,831.4z M720.8,836.8c-6.3-2.5-9.3-9.6-6.8-15.9l0,0
		c2.5-6.3,9.6-9.3,15.9-6.8l0,0c6.3,2.5,9.3,9.6,6.8,15.9l0,0c-1.9,4.8-6.5,7.7-11.4,7.7l0,0C723.9,837.7,722.3,837.4,720.8,836.8z
		 M1212.9,818.1c-2.5-6.3,0.5-13.4,6.8-15.9l0,0c6.3-2.5,13.4,0.5,15.9,6.8l0,0c2.5,6.3-0.5,13.4-6.8,15.9l0,0
		c-1.5,0.6-3,0.9-4.6,0.9l0,0C1219.4,825.7,1214.8,822.8,1212.9,818.1z M687.6,823.4c-6.3-2.5-9.3-9.6-6.8-15.9l0,0
		c2.5-6.3,9.6-9.3,15.9-6.8l0,0c6.3,2.5,9.3,9.6,6.8,15.9l0,0c-1.9,4.8-6.5,7.7-11.3,7.7l0,0C690.6,824.3,689.1,824,687.6,823.4z
		 M1246.2,804.7c-2.5-6.3,0.5-13.4,6.8-15.9l0,0c6.3-2.5,13.4,0.5,15.9,6.8l0,0c2.5,6.3-0.5,13.4-6.8,15.9l0,0
		c-1.5,0.6-3,0.9-4.5,0.9l0,0C1252.7,812.4,1248.1,809.5,1246.2,804.7z M654.3,810.1c-6.3-2.5-9.3-9.6-6.8-15.9l0,0
		c2.5-6.3,9.6-9.3,15.9-6.8l0,0c6.3,2.5,9.3,9.6,6.8,15.9l0,0c-1.9,4.8-6.5,7.7-11.3,7.7l0,0C657.4,811,655.8,810.7,654.3,810.1z
		 M1279.4,791.3c-2.5-6.3,0.5-13.4,6.8-15.9l0,0c6.3-2.5,13.4,0.5,15.9,6.8l0,0c2.5,6.3-0.5,13.4-6.8,15.9l0,0
		c-1.5,0.6-3,0.9-4.5,0.9l0,0C1285.9,799,1281.3,796.1,1279.4,791.3z M621.1,796.7c-6.3-2.5-9.3-9.6-6.8-15.9l0,0
		c2.5-6.3,9.6-9.3,15.9-6.8l0,0c6.3,2.5,9.3,9.6,6.8,15.9l0,0c-1.9,4.8-6.5,7.7-11.3,7.7l0,0C624.1,797.6,622.6,797.3,621.1,796.7z
		 M1312.7,778c-2.5-6.3,0.5-13.4,6.8-15.9l0,0c6.3-2.5,13.4,0.5,15.9,6.8l0,0c2.5,6.3-0.5,13.4-6.8,15.9l0,0c-1.5,0.6-3,0.9-4.6,0.9
		l0,0C1319.2,785.6,1314.6,782.7,1312.7,778z M587.8,783.3c-6.3-2.5-9.3-9.6-6.8-15.9l0,0c2.5-6.3,9.6-9.3,15.9-6.8l0,0
		c6.3,2.5,9.3,9.6,6.8,15.9l0,0c-1.9,4.8-6.5,7.7-11.3,7.7l0,0C590.9,784.2,589.3,783.9,587.8,783.3z M1345.9,764.6
		c-2.5-6.3,0.5-13.4,6.8-15.9l0,0c6.3-2.5,13.4,0.5,15.9,6.8l0,0c2.5,6.3-0.5,13.4-6.8,15.9l0,0c-1.5,0.6-3,0.9-4.6,0.9l0,0
		C1352.4,772.3,1347.8,769.4,1345.9,764.6z M554.6,770c-6.3-2.5-9.3-9.6-6.8-15.9l0,0c2.5-6.3,9.6-9.3,15.9-6.8l0,0
		c6.3,2.5,9.3,9.6,6.8,15.9l0,0c-1.9,4.8-6.5,7.7-11.3,7.7l0,0C557.6,770.8,556.1,770.6,554.6,770z M1379.2,751.2
		c-2.5-6.3,0.5-13.4,6.8-15.9l0,0c6.3-2.5,13.4,0.5,15.9,6.8l0,0c2.5,6.3-0.5,13.4-6.8,15.9l0,0c-1.5,0.6-3,0.9-4.5,0.9l0,0
		C1385.7,758.9,1381.1,756,1379.2,751.2z M521.3,756.6c-6.3-2.5-9.3-9.6-6.8-15.9l0,0c2.5-6.3,9.6-9.3,15.9-6.8l0,0
		c6.3,2.5,9.3,9.6,6.8,15.9l0,0c-1.9,4.8-6.5,7.7-11.3,7.7l0,0C524.3,757.5,522.8,757.2,521.3,756.6z M1412.4,737.9
		c-2.5-6.3,0.5-13.4,6.8-15.9l0,0c6.3-2.5,13.4,0.5,15.9,6.8l0,0c2.5,6.3-0.5,13.4-6.8,15.9l0,0c-1.5,0.6-3,0.9-4.5,0.9l0,0
		C1418.9,745.5,1414.3,742.6,1412.4,737.9z M488.1,743.2c-6.3-2.5-9.3-9.6-6.8-15.9l0,0c2.5-6.3,9.6-9.3,15.9-6.8l0,0
		c6.3,2.5,9.3,9.6,6.8,15.9l0,0c-1.9,4.8-6.5,7.7-11.3,7.7l0,0C491.1,744.1,489.5,743.8,488.1,743.2z M1445.7,724.5
		c-2.5-6.3,0.5-13.4,6.8-15.9l0,0c6.3-2.5,13.4,0.5,15.9,6.8l0,0c2.5,6.3-0.5,13.4-6.8,15.9l0,0c-1.5,0.6-3,0.9-4.6,0.9l0,0
		C1452.2,732.2,1447.6,729.3,1445.7,724.5z M454.8,729.9c-6.3-2.5-9.3-9.6-6.8-15.9l0,0c2.5-6.3,9.6-9.3,15.9-6.8l0,0
		c6.3,2.5,9.3,9.6,6.8,15.9l0,0c-1.9,4.8-6.5,7.7-11.3,7.7l0,0C457.8,730.8,456.3,730.5,454.8,729.9z M1478.9,711.1
		c-2.5-6.3,0.5-13.4,6.8-15.9l0,0c6.3-2.5,13.4,0.5,15.9,6.8l0,0c2.5,6.3-0.5,13.4-6.8,15.9l0,0c-1.5,0.6-3,0.9-4.6,0.9l0,0
		C1485.4,718.8,1480.9,715.9,1478.9,711.1z M421.5,716.5c-6.3-2.5-9.3-9.6-6.8-15.9l0,0c2.5-6.3,9.6-9.3,15.9-6.8l0,0
		c6.3,2.5,9.3,9.6,6.8,15.9l0,0c-1.9,4.8-6.5,7.7-11.3,7.7l0,0C424.6,717.4,423,717.1,421.5,716.5z M1512.2,697.7
		c-2.5-6.3,0.5-13.4,6.8-15.9l0,0c6.3-2.5,13.4,0.5,15.9,6.8l0,0c2.5,6.3-0.5,13.4-6.8,15.9l0,0c-1.5,0.6-3,0.9-4.5,0.9l0,0
		C1518.7,705.4,1514.1,702.5,1512.2,697.7z M388.3,703.1c-6.3-2.5-9.3-9.6-6.8-15.9l0,0c2.5-6.3,9.6-9.3,15.9-6.8l0,0
		c6.3,2.5,9.3,9.6,6.8,15.9l0,0c-1.9,4.8-6.5,7.7-11.3,7.7l0,0C391.3,704,389.8,703.7,388.3,703.1z M1545.5,684.4
		c-2.5-6.3,0.5-13.4,6.8-15.9l0,0c6.3-2.5,13.4,0.5,15.9,6.8l0,0c2.5,6.3-0.5,13.4-6.8,15.9l0,0c-1.5,0.6-3,0.9-4.5,0.9l0,0
		C1552,692,1547.4,689.2,1545.5,684.4z M355,689.8c-6.3-2.5-9.3-9.6-6.8-15.9l0,0c2.5-6.3,9.6-9.3,15.9-6.8l0,0
		c6.3,2.5,9.3,9.6,6.8,15.9l0,0c-1.9,4.8-6.5,7.7-11.3,7.7l0,0C358.1,690.6,356.5,690.3,355,689.8z M1578.7,671
		c-2.5-6.3,0.5-13.4,6.8-15.9l0,0c6.3-2.5,13.4,0.5,15.9,6.8l0,0c2.5,6.3-0.5,13.4-6.8,15.9l0,0c-1.5,0.6-3,0.9-4.6,0.9l0,0
		C1585.2,678.7,1580.6,675.8,1578.7,671z M321.8,676.4c-6.3-2.5-9.3-9.6-6.8-15.9l0,0c2.5-6.3,9.6-9.3,15.9-6.8l0,0
		c6.3,2.5,9.3,9.6,6.8,15.9l0,0c-1.9,4.8-6.5,7.7-11.3,7.7l0,0C324.8,677.3,323.3,677,321.8,676.4z M297.6,666.7
		c-6.3-2.5-9.3-9.6-6.8-15.9l0,0c2.5-6.3,9.6-9.3,15.9-6.8l0,0c6.3,2.5,9.3,9.6,6.8,15.9l0,0c-1.9,4.8-6.5,7.7-11.4,7.7l0,0
		C300.6,667.5,299.1,667.2,297.6,666.7z M1612.1,658c-2.8-6.2,0-13.4,6.1-16.2l0,0c6.1-2.8,13.4,0,16.2,6.1l0,0
		c2.8,6.1,0,13.4-6.1,16.2l0,0c-1.6,0.7-3.3,1.1-5,1.1l0,0C1618.6,665.2,1614.2,662.5,1612.1,658z M263.6,647.4
		c-5.3-4.1-6.3-11.8-2.2-17.1l0,0c4.1-5.3,11.8-6.3,17.1-2.2l0,0c5.3,4.1,6.3,11.8,2.2,17.1l0,0c-2.4,3.1-6,4.7-9.7,4.7l0,0
		C268.5,649.9,265.8,649.1,263.6,647.4z M1644.2,641.9c-4.4-5.1-3.8-12.9,1.4-17.2l0,0c5.1-4.4,12.8-3.8,17.2,1.4l0,0
		c4.4,5.1,3.8,12.8-1.4,17.2l0,0c-2.3,2-5.1,2.9-7.9,2.9l0,0C1650,646.2,1646.6,644.7,1644.2,641.9z M236.4,618.9
		c-3.9-5.5-2.5-13.1,3-17l0,0c5.5-3.9,13.1-2.5,17,3l0,0c3.9,5.5,2.5,13.1-3,17l0,0c-2.1,1.5-4.6,2.2-7,2.2l0,0
		C242.6,624.1,238.8,622.3,236.4,618.9z M1670.3,617.3c-5.7-3.6-7.4-11.1-3.8-16.8l0,0c3.6-5.7,11.1-7.4,16.8-3.8l0,0
		c5.7,3.6,7.4,11.1,3.8,16.8l0,0c-2.3,3.7-6.3,5.7-10.4,5.7l0,0C1674.5,619.1,1672.3,618.5,1670.3,617.3z M218.8,583.8
		C218.8,583.8,218.8,583.8,218.8,583.8L218.8,583.8c-2.1-6.4,1.3-13.3,7.7-15.5l0,0c6.4-2.1,13.3,1.3,15.5,7.7l0,0
		c2.1,6.4-1.3,13.3-7.7,15.5l0,0c-1.3,0.4-2.6,0.6-3.9,0.6l0,0C225.3,592.2,220.5,588.9,218.8,583.8z M1687.9,586
		c-6.5-1.8-10.3-8.6-8.4-15.1l0,0c1.8-6.5,8.6-10.3,15.1-8.4l0,0c6.5,1.8,10.3,8.6,8.4,15.1l0,0l0,0l0,0c-1.5,5.4-6.4,8.9-11.7,8.9
		l0,0C1690.1,586.5,1689,586.3,1687.9,586z M211.7,545.4c-0.3-6.7,4.9-12.4,11.7-12.7l0,0c6.7-0.3,12.4,4.9,12.7,11.7l0,0
		c0.3,6.7-4.9,12.4-11.7,12.7l0,0c-0.2,0-0.4,0-0.6,0l0,0C217.4,557,212,551.9,211.7,545.4z M1683.9,538.9L1683.9,538.9
		c0-6.7,5.4-12.3,12.2-12.3l0,0c6.7,0,12.2,5.4,12.3,12.2l0,0c0,6.7-5.4,12.2-12.2,12.3l0,0c0,0,0,0-0.1,0l0,0
		C1689.4,551.1,1683.9,545.6,1683.9,538.9z M1708.3,538.8C1708.3,538.8,1708.3,538.8,1708.3,538.8L1708.3,538.8
		C1708.3,538.8,1708.3,538.8,1708.3,538.8L1708.3,538.8L1708.3,538.8z M224.5,521.1c-6.6-1.6-10.6-8.2-9-14.8l0,0
		c1.6-6.6,8.2-10.6,14.7-9l0,0c6.6,1.6,10.6,8.2,9,14.7l0,0c-1.4,5.6-6.4,9.4-11.9,9.4l0,0C226.5,521.5,225.5,521.4,224.5,521.1z
		 M1679.2,506.9L1679.2,506.9c-1.9-6.5,1.8-13.3,8.3-15.2l0,0c6.5-1.9,13.3,1.8,15.2,8.3l0,0l0,0l0,0c1.9,6.5-1.8,13.3-8.3,15.2l0,0
		c-1.1,0.3-2.3,0.5-3.4,0.5l0,0C1685.6,515.7,1680.7,512.2,1679.2,506.9z M234.5,486.7c-5.9-3.4-7.9-10.8-4.5-16.7l0,0l0,0l0,0
		c3.4-5.8,10.8-7.9,16.7-4.5l0,0c5.8,3.4,7.9,10.8,4.5,16.7l0,0c-2.2,3.9-6.4,6.1-10.6,6.1l0,0C238.5,488.3,236.4,487.7,234.5,486.7
		z M1665.9,477.5L1665.9,477.5c-3.6-5.7-2-13.2,3.7-16.9l0,0c5.7-3.6,13.2-2,16.9,3.7l0,0l0,0l0,0c3.6,5.7,2,13.2-3.7,16.9l0,0
		c-2.1,1.3-4.3,1.9-6.6,1.9l0,0C1672.2,483.2,1668.2,481.2,1665.9,477.5z M253.8,456.4c-4.6-5-4.3-12.7,0.6-17.3l0,0
		c5-4.6,12.7-4.3,17.3,0.6l0,0c4.6,5,4.3,12.7-0.6,17.3l0,0c-2.4,2.2-5.3,3.3-8.3,3.3l0,0C259.5,460.3,256.3,459,253.8,456.4z
		 M1644.8,453.5c-5.2-4.3-5.8-12.1-1.5-17.2l0,0c4.3-5.2,12-5.8,17.2-1.5l0,0c0,0,0,0,0,0l0,0c5.2,4.3,5.8,12,1.5,17.2l0,0
		c-2.4,2.9-5.9,4.4-9.4,4.4l0,0C1649.8,456.4,1647,455.4,1644.8,453.5z M281.3,433.3c-3-6-0.5-13.4,5.5-16.4l0,0l0,0l0,0
		c6-3,13.4-0.5,16.4,5.5l0,0c3,6,0.5,13.4-5.5,16.4l0,0c-1.7,0.9-3.6,1.3-5.4,1.3l0,0C287.7,440.1,283.4,437.6,281.3,433.3z
		 M1617.3,436.6c-6.2-2.7-9-10-6.2-16.1l0,0c2.7-6.2,9.9-9,16.1-6.2l0,0c6.2,2.7,9,9.9,6.2,16.1l0,0c-2,4.6-6.5,7.3-11.2,7.3l0,0
		C1620.6,437.6,1618.9,437.3,1617.3,436.6z M314,418.7c-2.5-6.3,0.5-13.4,6.8-15.9l0,0c6.3-2.5,13.4,0.5,15.9,6.8l0,0
		c2.5,6.3-0.5,13.4-6.8,15.9l0,0c-1.5,0.6-3,0.9-4.5,0.9l0,0C320.5,426.4,315.9,423.5,314,418.7z M1584.5,423.3
		c-6.3-2.5-9.3-9.6-6.8-15.9l0,0c2.5-6.3,9.6-9.3,15.9-6.8l0,0c6.3,2.5,9.3,9.6,6.8,15.9l0,0c-1.9,4.8-6.5,7.7-11.3,7.7l0,0
		C1587.5,424.2,1586,423.9,1584.5,423.3z M347.2,405.3c-2.5-6.3,0.5-13.4,6.8-15.9l0,0c6.3-2.5,13.4,0.5,15.9,6.8l0,0
		c2.5,6.3-0.5,13.4-6.8,15.9l0,0c-1.5,0.6-3,0.9-4.5,0.9l0,0C353.7,413,349.2,410.1,347.2,405.3z M1551.2,409.9
		c-6.3-2.5-9.3-9.6-6.8-15.9l0,0c2.5-6.3,9.6-9.3,15.9-6.8l0,0c6.3,2.5,9.3,9.6,6.8,15.9l0,0c-1.9,4.8-6.5,7.7-11.3,7.7l0,0
		C1554.2,410.8,1552.7,410.5,1551.2,409.9z M380.5,392c-2.5-6.3,0.5-13.4,6.8-15.9l0,0c6.3-2.5,13.4,0.5,15.9,6.8l0,0
		c2.5,6.3-0.5,13.4-6.8,15.9l0,0c-1.5,0.6-3,0.9-4.6,0.9l0,0C387,399.6,382.4,396.7,380.5,392z M1518,396.5
		c-6.3-2.5-9.3-9.6-6.8-15.9l0,0c2.5-6.3,9.6-9.3,15.9-6.8l0,0c6.3,2.5,9.3,9.6,6.8,15.9l0,0c-1.9,4.8-6.5,7.7-11.3,7.7l0,0
		C1521,397.4,1519.4,397.1,1518,396.5z M413.7,378.6c-2.5-6.3,0.5-13.4,6.8-15.9l0,0c6.3-2.5,13.4,0.5,15.9,6.8l0,0
		c2.5,6.3-0.5,13.4-6.8,15.9l0,0c-1.5,0.6-3,0.9-4.6,0.9l0,0C420.2,386.3,415.7,383.4,413.7,378.6z M1484.7,383.2
		c-6.3-2.5-9.3-9.6-6.8-15.9l0,0c2.5-6.3,9.6-9.3,15.9-6.8l0,0c6.3,2.5,9.3,9.6,6.8,15.9l0,0c-1.9,4.8-6.5,7.7-11.3,7.7l0,0
		C1487.7,384,1486.2,383.8,1484.7,383.2z M447,365.2c-2.5-6.3,0.5-13.4,6.8-15.9l0,0c6.3-2.5,13.4,0.5,15.9,6.8l0,0
		c2.5,6.3-0.5,13.4-6.8,15.9l0,0c-1.5,0.6-3,0.9-4.5,0.9l0,0C453.5,372.9,448.9,370,447,365.2z M1451.4,369.8
		c-6.3-2.5-9.3-9.6-6.8-15.9l0,0c2.5-6.3,9.6-9.3,15.9-6.8l0,0c6.3,2.5,9.3,9.6,6.8,15.9l0,0c-1.9,4.8-6.5,7.7-11.3,7.7l0,0
		C1454.5,370.7,1452.9,370.4,1451.4,369.8z M480.3,351.9c-2.5-6.3,0.5-13.4,6.8-15.9l0,0c6.3-2.5,13.4,0.5,15.9,6.8l0,0
		c2.5,6.3-0.5,13.4-6.8,15.9l0,0c-1.5,0.6-3,0.9-4.5,0.9l0,0C486.8,359.5,482.2,356.6,480.3,351.9z M1418.2,356.4
		c-6.3-2.5-9.3-9.6-6.8-15.9l0,0c2.5-6.3,9.6-9.3,15.9-6.8l0,0c6.3,2.5,9.3,9.6,6.8,15.9l0,0c-1.9,4.8-6.5,7.7-11.3,7.7l0,0
		C1421.2,357.3,1419.7,357,1418.2,356.4z M513.5,338.5c-2.5-6.3,0.5-13.4,6.8-15.9l0,0c6.3-2.5,13.4,0.5,15.9,6.8l0,0
		c2.5,6.3-0.5,13.4-6.8,15.9l0,0c-1.5,0.6-3,0.9-4.6,0.9l0,0C520,346.2,515.4,343.3,513.5,338.5z M1384.9,343.1
		c-6.3-2.5-9.3-9.6-6.8-15.9l0,0c2.5-6.3,9.6-9.3,15.9-6.8l0,0c6.3,2.5,9.3,9.6,6.8,15.9l0,0c-1.9,4.8-6.5,7.7-11.3,7.7l0,0
		C1388,343.9,1386.4,343.7,1384.9,343.1z M546.8,325.1c-2.5-6.3,0.5-13.4,6.8-15.9l0,0c6.3-2.5,13.4,0.5,15.9,6.8l0,0
		c2.5,6.3-0.5,13.4-6.8,15.9l0,0c-1.5,0.6-3,0.9-4.6,0.9l0,0C553.3,332.8,548.7,329.9,546.8,325.1z M1351.7,329.7
		c-6.3-2.5-9.3-9.6-6.8-15.9l0,0c2.5-6.3,9.6-9.3,15.9-6.8l0,0c6.3,2.5,9.3,9.6,6.8,15.9l0,0c-1.9,4.8-6.5,7.7-11.3,7.7l0,0
		C1354.7,330.6,1353.2,330.3,1351.7,329.7z M580,311.8c-2.5-6.3,0.5-13.4,6.8-15.9l0,0c6.3-2.5,13.4,0.5,15.9,6.8l0,0
		c2.5,6.3-0.5,13.4-6.8,15.9l0,0c-1.5,0.6-3,0.9-4.6,0.9l0,0C586.5,319.4,581.9,316.5,580,311.8z M1318.4,316.3
		c-6.3-2.5-9.3-9.6-6.8-15.9l0,0c2.5-6.3,9.6-9.3,15.9-6.8l0,0c6.3,2.5,9.3,9.6,6.8,15.9l0,0c-1.9,4.8-6.5,7.7-11.3,7.7l0,0
		C1321.5,317.2,1319.9,316.9,1318.4,316.3z M613.3,298.4c-2.5-6.3,0.5-13.4,6.8-15.9l0,0c6.3-2.5,13.4,0.5,15.9,6.8l0,0
		c2.5,6.3-0.5,13.4-6.8,15.9l0,0c-1.5,0.6-3,0.9-4.5,0.9l0,0C619.8,306.1,615.2,303.2,613.3,298.4z M1285.2,302.9
		c-6.3-2.5-9.3-9.6-6.8-15.9l0,0c2.5-6.3,9.6-9.3,15.9-6.8l0,0c6.3,2.5,9.3,9.6,6.8,15.9l0,0c-1.9,4.8-6.5,7.7-11.3,7.7l0,0
		C1288.2,303.8,1286.7,303.6,1285.2,302.9z M646.5,285c-2.5-6.3,0.5-13.4,6.8-15.9l0,0c6.3-2.5,13.4,0.5,15.9,6.8l0,0
		c2.5,6.3-0.5,13.4-6.8,15.9l0,0c-1.5,0.6-3,0.9-4.6,0.9l0,0C653,292.7,648.5,289.8,646.5,285z M1251.9,289.6
		c-6.3-2.5-9.3-9.6-6.8-15.9l0,0c2.5-6.3,9.6-9.3,15.9-6.8l0,0c6.3,2.5,9.3,9.6,6.8,15.9l0,0c-1.9,4.8-6.5,7.7-11.3,7.7l0,0
		C1255,290.5,1253.4,290.2,1251.9,289.6z M679.8,271.7c-2.5-6.3,0.5-13.4,6.8-15.9l0,0c6.3-2.5,13.4,0.5,15.9,6.8l0,0
		c2.5,6.3-0.5,13.4-6.8,15.9l0,0c-1.5,0.6-3,0.9-4.6,0.9l0,0C686.3,279.3,681.7,276.4,679.8,271.7z M1218.7,276.2
		c-6.3-2.5-9.3-9.6-6.8-15.9l0,0c2.5-6.3,9.6-9.3,15.9-6.8l0,0c6.3,2.5,9.3,9.6,6.8,15.9l0,0c-1.9,4.8-6.5,7.7-11.3,7.7l0,0
		C1221.7,277.1,1220.2,276.8,1218.7,276.2z M713,258.3c-2.5-6.3,0.5-13.4,6.8-15.9l0,0c6.3-2.5,13.4,0.5,15.9,6.8l0,0
		c2.5,6.3-0.5,13.4-6.8,15.9l0,0c-1.5,0.6-3,0.9-4.6,0.9l0,0C719.5,265.9,715,263,713,258.3z M1185.4,262.8
		c-6.3-2.5-9.3-9.6-6.8-15.9l0,0c2.5-6.3,9.6-9.3,15.9-6.8l0,0c6.3,2.5,9.3,9.6,6.8,15.9l0,0c-1.9,4.8-6.5,7.7-11.3,7.7l0,0
		C1188.4,263.7,1186.9,263.4,1185.4,262.8z M746.3,244.9c-2.5-6.3,0.5-13.4,6.8-15.9l0,0c6.3-2.5,13.4,0.5,15.9,6.8l0,0
		c2.5,6.3-0.5,13.4-6.8,15.9l0,0c-1.5,0.6-3,0.9-4.5,0.9l0,0C752.8,252.6,748.2,249.7,746.3,244.9z M1152.2,249.5
		c-6.3-2.5-9.3-9.6-6.8-15.9l0,0c2.5-6.3,9.6-9.3,15.9-6.8l0,0c6.3,2.5,9.3,9.6,6.8,15.9l0,0c-1.9,4.8-6.5,7.7-11.3,7.7l0,0
		C1155.2,250.4,1153.6,250.1,1152.2,249.5z M779.6,231.6c-2.5-6.3,0.5-13.4,6.8-15.9l0,0c6.3-2.5,13.4,0.5,15.9,6.8l0,0
		c2.5,6.3-0.5,13.4-6.8,15.9l0,0c-1.5,0.6-3,0.9-4.6,0.9l0,0C786.1,239.2,781.5,236.3,779.6,231.6z M1118.9,236.1
		c-6.3-2.5-9.3-9.6-6.8-15.9l0,0c2.5-6.3,9.6-9.3,15.9-6.8l0,0c6.3,2.5,9.3,9.6,6.8,15.9l0,0c-1.9,4.8-6.5,7.7-11.3,7.7l0,0
		C1121.9,237,1120.4,236.7,1118.9,236.1z M812.8,218.2c-2.5-6.3,0.5-13.4,6.8-15.9l0,0c6.3-2.5,13.4,0.5,15.9,6.8l0,0
		c2.5,6.3-0.5,13.4-6.8,15.9l0,0c-1.5,0.6-3,0.9-4.6,0.9l0,0C819.3,225.9,814.7,223,812.8,218.2z M1085.6,222.7
		c-6.3-2.5-9.3-9.6-6.8-15.9l0,0c2.5-6.3,9.6-9.3,15.9-6.8l0,0c6.3,2.5,9.3,9.6,6.8,15.9l0,0c-1.9,4.8-6.5,7.7-11.3,7.7l0,0
		C1088.7,223.6,1087.1,223.3,1085.6,222.7z M846.1,204.8c-2.5-6.3,0.5-13.4,6.8-15.9l0,0c6.3-2.5,13.4,0.5,15.9,6.8l0,0
		c2.5,6.3-0.5,13.4-6.8,15.9l0,0c-1.5,0.6-3,0.9-4.6,0.9l0,0C852.6,212.5,848,209.6,846.1,204.8z M1052.4,209.4
		c-6.3-2.5-9.3-9.6-6.8-15.9l0,0c2.5-6.3,9.6-9.3,15.9-6.8l0,0c6.3,2.5,9.3,9.6,6.8,15.9l0,0c-1.9,4.8-6.5,7.7-11.3,7.7l0,0
		C1055.4,210.2,1053.9,210,1052.4,209.4z M879.3,191.4c-2.5-6.3,0.5-13.4,6.8-15.9l0,0c6.3-2.5,13.4,0.5,15.9,6.8l0,0
		c2.5,6.3-0.5,13.4-6.8,15.9l0,0c-1.5,0.6-3,0.9-4.5,0.9l0,0C885.8,199.1,881.2,196.2,879.3,191.4z M1019.1,196
		c-6.3-2.5-9.3-9.6-6.8-15.9l0,0c2.5-6.3,9.6-9.3,15.9-6.8l0,0c6.3,2.5,9.3,9.6,6.8,15.9l0,0c-1.9,4.8-6.5,7.7-11.3,7.7l0,0
		C1022.2,196.9,1020.6,196.6,1019.1,196z M912.6,178.1c-2.5-6.3,0.5-13.4,6.8-15.9l0,0c6.3-2.5,13.4,0.5,15.9,6.8l0,0
		c2.5,6.3-0.5,13.4-6.8,15.9l0,0c-1.5,0.6-3,0.9-4.6,0.9l0,0C919.1,185.7,914.5,182.8,912.6,178.1z M985.9,182.6
		c-6.3-2.5-9.3-9.6-6.8-15.9l0,0c2.5-6.3,9.6-9.3,15.9-6.8l0,0c6.3,2.5,9.3,9.6,6.8,15.9l0,0c-1.9,4.8-6.5,7.7-11.3,7.7l0,0
		C988.9,183.5,987.4,183.2,985.9,182.6z M965.6,174.7h-10.8v-25.2h10.8V174.7z M965.6,930.5h-10.8v-25.2h10.8V930.5z"/>
	<path class="st0" d="M305.2,647.8c-54-21.7-73.2-70.2-73.2-108.4c0-38.2,19.2-86.7,73.2-108.4l654.8-263.2L1614.7,431
		c54,21.7,73.2,70.2,73.2,108.4c0,38.2-19.2,86.7-73.2,108.4L959.9,911L305.2,647.8z"/>
	<path d="M311.2,632.6c-46.5-18.7-63-60.4-63-93.2c0-32.8,16.6-74.6,63-93.2l648.7-260.8l648.7,260.8c46.5,18.7,63,60.4,63,93.2
		s-16.6,74.6-63,93.2L959.9,893.4L311.2,632.6z"/>
	<path class="st0" d="M317.3,617.5c-38.9-15.6-52.8-50.6-52.8-78.1c0-27.5,13.9-62.5,52.8-78.1l642.6-258.3l642.6,258.3
		c38.9,15.6,52.8,50.6,52.8,78.1c0,27.5-13.9,62.5-52.8,78.1L959.9,875.9L317.3,617.5z"/>
	<path class="st1" d="M322.2,605.4c-32.9-13.2-44.6-42.8-44.6-66c0-23.3,11.7-52.8,44.6-66L959.9,217l637.8,256.4
		c32.9,13.2,44.6,42.8,44.6,66c0,23.2-11.7,52.8-44.6,66L959.9,861.8L322.2,605.4z"/>
	<g>
		<g>
			<path class="st2" d="M852.8,672.1h14.9v26.6c0,4.1,0.1,6.9,0.3,8.4c0.2,1.9,0.6,3.3,1,4.3c0.5,1.4,1.5,2.5,3,3.1
				c1.4,0.8,3.2,1.2,5.2,1.2c2,0,3.7-0.4,5.2-1.2c1.3-0.6,2.3-1.7,3-3.1c0.4-1,0.7-2.4,1-4.3c0.2-1.5,0.3-4.3,0.3-8.4v-3.7v-22.9
				h14.8V701c0,5.9-0.4,10.3-1.1,13.2c-0.7,2.9-1.9,5.3-3.7,7.4c-1.9,2.3-4.5,3.9-7.7,5c-3.2,1.1-7.1,1.7-11.8,1.7
				c-4.8,0-8.8-0.6-11.9-1.7c-3.2-1-5.7-2.7-7.7-5c-1.7-2-2.9-4.4-3.7-7.4c-0.8-2.9-1.2-7.3-1.2-13.2v-5.7V672.1z"/>
			<path class="st2" d="M935.4,709.1c2.3,2.5,4.5,4.4,6.6,5.6c2.2,1.2,4.3,1.9,6.4,1.9c2,0,3.6-0.5,4.9-1.6c1.3-1.1,1.9-2.4,1.9-4.1
				c0-1.8-0.5-3.2-1.6-4.2c-1.1-1-3.7-2-7.6-3c-5.3-1.4-9.1-3.3-11.3-5.6c-2.2-2.3-3.4-5.5-3.4-9.6c0-5.2,1.8-9.5,5.3-12.8
				c3.5-3.3,8-5,13.6-5c3.2,0,6,0.4,8.6,1.2c2.7,0.8,5.3,2,7.7,3.7l-4.7,10.7c-1.6-1.4-3.4-2.5-5.2-3.3c-1.8-0.7-3.5-1.1-5.3-1.1
				c-1.7,0-3.2,0.4-4.4,1.3c-1.1,0.8-1.7,1.9-1.7,3.3c0,1.3,0.5,2.4,1.5,3.3c1,0.8,2.9,1.6,5.8,2.4c0.1,0,0.2,0,0.3,0.1
				c0.1,0,0.2,0,0.3,0.1c6.1,1.6,10.1,3.4,12,5.5c1.3,1.3,2.3,2.9,3,4.8c0.6,1.8,1,3.9,1,6.3c0,5.8-1.9,10.4-5.7,14
				c-3.8,3.5-8.9,5.3-15.2,5.3c-3.9,0-7.4-0.6-10.4-1.9c-3.1-1.3-6.1-3.3-9-6.1L935.4,709.1z"/>
			<path class="st2" d="M1029.7,671.7h-14.9l-22,56.5h14.8l4.1-10.4h21.2l4.1,10.4h14.8L1029.7,671.7z M1015.8,707.3l6.5-16.6
				l6.5,16.6H1015.8z"/>
		</g>
		<g>
			<path class="st3" d="M407.1,626.6l16-113.3h76.1l-4.3,30.7h-36l-1.9,14.8h31.1l-3.2,32.7h-32.8l-5,35.1H407.1z"/>
			<path class="st3" d="M493.8,626.6l16-113.3h40.1l-10.8,76.5H578l-5.2,36.8H493.8z"/>
			<path class="st3" d="M667.4,513.3h-43L572,626.6h39.7l8.7-18.9H649l1.5,18.9h39.8L667.4,513.3z M628.8,581.3l14.4-36.3l1.6,36.3
				H628.8z"/>
			<path class="st3" d="M711.9,626.6l-21.7-113.3h43.4l6,41c0.7,4.3,1.3,9.4,1.8,15.2c0.2,4.8,0.2,8.6-0.1,11.5h0.8
				c0.7-2.6,2-6.6,3.9-12c0.9-2.6,2.8-7.2,5.5-13.9l18.4-42h42.5l-51.9,113.3H711.9z"/>
			<path class="st3" d="M915.5,570.2c-1.2,8.4-3.7,16.1-7.7,23.1c-4.1,7.3-9.2,13.7-15.3,19.2c-6.2,5.4-13.3,9.6-21,12.7
				c-7.8,2.9-15.7,4.4-23.9,4.4c-8.3,0-15.8-1.5-22.7-4.4c-6.7-2.9-12.5-7.2-17.5-12.8c-4.8-5.7-8.1-12-10-18.9
				c-1.8-7.1-2.1-14.8-0.9-23.3c1.2-8.5,3.7-16.2,7.5-23.3c3.9-7,9-13.4,15.3-19c6.4-5.5,13.4-9.8,21-12.8
				c7.7-2.8,15.7-4.3,24.1-4.3c8.3,0,15.9,1.4,22.8,4.3c6.8,3,12.7,7.3,17.5,12.8c4.6,5.6,7.9,11.9,9.9,19
				C916.4,554.1,916.7,561.8,915.5,570.2z M852.9,591.6c5.6,0,10.4-1.9,14.4-5.8c4-4,6.4-9.2,7.3-15.6c0.9-6.6,0-11.8-2.9-15.7
				c-2.9-3.9-7.2-5.9-12.8-5.9s-10.4,2-14.5,5.9c-4,3.9-6.4,9.2-7.3,15.7c-0.9,6.4,0.1,11.6,2.9,15.6
				C843,589.6,847.3,591.6,852.9,591.6z"/>
			<path class="st3" d="M916.2,626.6l16-113.3h50.4c14.7,0,25.4,3.3,32.1,9.8c6.8,6.6,9.3,16,7.6,28.3c-1.1,8-4,14.7-8.6,19.8
				c-4.7,5.4-10.4,8.4-17.1,9.2l2.1,4.1c4,8,12.2,13,21.1,13.1l0,0l-1.6,29h-19.9c-15,0-26.7-8.7-31.6-21.8l-5.9-15.6l-5.3,37.4
				H916.2z M967.4,542.5l-3.1,22.1h6.2c3.9,0,7-1,9.3-2.9c2.2-1.8,3.6-4.5,4.1-8c0.5-3.6-0.1-6.4-1.8-8.4c-1.8-1.9-4.6-2.8-8.5-2.8
				H967.4z"/>
			<path class="st3" d="M1051.3,626.6l10.4-81.9h-27.2l3.9-31.4h92.9l-3.9,31.4h-29l-10.4,81.9H1051.3z"/>
			<path class="st3" d="M1244.9,570.2c-1.2,8.4-3.7,16.1-7.7,23.1c-4.1,7.3-9.2,13.7-15.3,19.2c-6.2,5.4-13.3,9.6-21,12.7
				c-7.8,2.9-15.7,4.4-23.9,4.4c-8.3,0-15.8-1.5-22.7-4.4c-6.7-2.9-12.5-7.2-17.5-12.8c-4.8-5.7-8.1-12-10-18.9
				c-1.8-7.1-2.1-14.8-0.9-23.3c1.2-8.5,3.7-16.2,7.5-23.3c3.9-7,9-13.4,15.3-19c6.4-5.5,13.4-9.8,21-12.8
				c7.7-2.8,15.7-4.3,24.1-4.3c8.3,0,15.9,1.4,22.8,4.3c6.8,3,12.7,7.3,17.5,12.8c4.6,5.6,7.9,11.9,9.9,19
				C1245.8,554.1,1246.1,561.8,1244.9,570.2z M1182.3,591.6c5.6,0,10.4-1.9,14.4-5.8c4-4,6.4-9.2,7.3-15.6c0.9-6.6,0-11.8-2.9-15.7
				c-2.9-3.9-7.2-5.9-12.8-5.9s-10.4,2-14.5,5.9c-4,3.9-6.4,9.2-7.3,15.7c-0.9,6.4,0.1,11.6,2.9,15.6
				C1172.4,589.6,1176.7,591.6,1182.3,591.6z"/>
			<path class="st3" d="M1403.8,626.6l16-113.3h39.3l26.2,59.3c-0.1-2.7,0-5.6,0.3-8.7c0.4-4.2,0.9-8.4,1.5-12.5l5.4-38h38.7
				l-16,113.3h-39.6l-25.9-58.8c0.1,2.5,0,5.2-0.2,8.1c-0.4,4-0.7,7.3-1.1,9.8l-5.8,40.9H1403.8z"/>
			<polygon class="st3" points="1413,513.3 1377.2,626.6 1329.5,626.6 1326.7,558.3 1303.9,626.6 1260.5,626.6 1252.4,513.3 
				1290.4,513.3 1289.7,594.2 1316.6,513.3 1349.7,513.3 1355.4,594.2 1375.5,513.3 			"/>
		</g>
		<polygon class="st2" points="920.5,487.2 920.5,450.3 905.5,450.3 905.5,445.4 941.9,445.4 941.9,450.3 926.9,450.3 926.9,487.2 
					"/>
		<path class="st2" d="M977.3,488.4c-2.6,0-5.1-0.4-7.5-1.3c-2.5-0.9-4.7-2.1-6.8-3.8c-2.6-2.1-4.7-4.6-6.1-7.5
			c-1.4-2.9-2.1-6.1-2.1-9.4c0-3,0.6-5.9,1.7-8.5c1.1-2.6,2.7-5,4.9-7c2.1-2,4.6-3.6,7.4-4.8c2.8-1.1,5.7-1.7,8.6-1.7
			c2.9,0,5.8,0.6,8.5,1.7c2.8,1.1,5.2,2.7,7.4,4.8c2.1,2,3.7,4.4,4.8,7.1c1.1,2.6,1.7,5.5,1.7,8.5c0,3-0.6,5.9-1.7,8.5
			c-1.1,2.7-2.7,5-4.8,7c-2.2,2.1-4.7,3.7-7.4,4.8C983.1,487.8,980.2,488.4,977.3,488.4z M977.3,449.6c-4.5,0-8.4,1.6-11.4,4.9
			c-3,3.2-4.5,7.2-4.5,11.9c0,4.8,1.5,8.8,4.4,11.9c3,3.2,6.8,4.8,11.4,4.8c4.5,0,8.3-1.6,11.3-4.8c2.9-3.2,4.4-7.2,4.4-11.9
			c0-4.7-1.5-8.7-4.5-11.9C985.5,451.2,981.8,449.6,977.3,449.6z"/>
		<path class="st0" d="M1432.3,419c-32.6,0-62-16.7-78.7-43.7c-16.7,27-46.1,43.7-78.7,43.7c-32.1,0-61.4-16.4-78.2-42.9
			c-16.8,26.5-46.1,42.9-78.2,42.9c-32.8,0-62.9-17.6-79.5-45.1c-16.6,27.5-46.7,45.1-79.5,45.1c-32.3,0-61.5-16.5-78.3-43.1
			c-16.8,26.6-46.1,43.1-78.3,43.1c-32.5,0-62.5-17.4-79.2-44.5C707,401.7,677,419,644.5,419c-32.7,0-62.8-17.5-79.4-44.9
			c-16.6,27.4-46.7,44.9-79.4,44.9c-51.1,0-92.7-41.6-92.7-92.7s41.6-92.7,92.7-92.7c32.7,0,62.8,17.5,79.4,44.9
			c16.6-27.4,46.7-44.9,79.4-44.9c32.5,0,62.5,17.4,79.2,44.5c16.6-27.2,46.7-44.5,79.2-44.5c32.3,0,61.5,16.5,78.3,43.1
			c16.8-26.6,46.1-43.1,78.3-43.1c32.8,0,62.9,17.6,79.5,45.1c16.6-27.5,46.7-45.1,79.5-45.1c32.1,0,61.4,16.4,78.2,42.9
			c16.8-26.5,46.1-42.9,78.2-42.9c32.6,0,62,16.7,78.7,43.7c16.7-27,46.1-43.7,78.7-43.7c51.1,0,92.7,41.6,92.7,92.7
			S1483.5,419,1432.3,419z"/>
		<path d="M1432.3,241.7c-35.7,0-66.3,22.3-78.7,53.7c-12.4-31.4-43-53.7-78.7-53.7c-35.2,0-65.5,21.7-78.2,52.4
			c-12.7-30.7-43-52.4-78.2-52.4c-36.5,0-67.7,23.3-79.5,55.7c-11.8-32.5-43-55.7-79.5-55.7c-35.4,0-65.7,21.9-78.3,52.8
			c-12.6-30.9-43-52.8-78.3-52.8c-36.2,0-67.1,22.8-79.2,54.8c-12.1-32-43-54.8-79.2-54.8c-36.4,0-67.5,23.1-79.4,55.4
			c-11.9-32.3-43-55.4-79.4-55.4c-46.6,0-84.6,37.9-84.6,84.6s37.9,84.6,84.6,84.6c36.4,0,67.5-23.1,79.4-55.4
			c11.9,32.3,43,55.4,79.4,55.4c36.2,0,67.1-22.8,79.2-54.8c12.1,32,43,54.8,79.2,54.8c35.4,0,65.7-21.9,78.3-52.8
			c12.6,30.9,43,52.8,78.3,52.8c36.5,0,67.7-23.3,79.5-55.7c11.8,32.5,43,55.7,79.5,55.7c35.2,0,65.5-21.7,78.2-52.4
			c12.7,30.7,43,52.4,78.2,52.4c35.7,0,66.3-22.3,78.7-53.7c12.4,31.4,43,53.7,78.7,53.7c46.6,0,84.6-37.9,84.6-84.6
			S1479,241.7,1432.3,241.7z"/>
		
			<ellipse transform="matrix(0.7071 -0.7071 0.7071 0.7071 -88.472 438.9973)" class="st1" cx="485.7" cy="326.3" rx="68.3" ry="68.3"/>
		<circle class="st1" cx="644.5" cy="326.3" r="68.3"/>
		<circle class="st1" cx="802.8" cy="326.3" r="68.3"/>
		
			<ellipse transform="matrix(0.9871 -0.1602 0.1602 0.9871 -39.877 157.9066)" class="st1" cx="959.5" cy="326.3" rx="68.3" ry="68.3"/>
		
			<ellipse transform="matrix(0.9239 -0.3827 0.3827 0.9239 -39.7258 452.8729)" class="st1" cx="1118.5" cy="326.3" rx="68.3" ry="68.3"/>
		
			<ellipse transform="matrix(0.9239 -0.3827 0.3827 0.9239 -27.8204 512.7249)" class="st1" cx="1274.9" cy="326.3" rx="68.3" ry="68.3"/>
		
			<ellipse transform="matrix(0.9239 -0.3827 0.3827 0.9239 -15.8375 572.9671)" class="st1" cx="1432.3" cy="326.3" rx="68.3" ry="68.3"/>
		<g>
			<path class="st3" d="M481.2,318.1c0.6,1.7,0.6,3.6,0,5.3l-12.1,37.4c-0.2,0.5-0.6,0.8-1.1,0.8h-8c-0.5,0-1-0.3-1.1-0.8l-22-68.3
				c-0.3-0.8,0.3-1.6,1.1-1.6h8.6c0.5,0,1,0.3,1.1,0.8l14.5,45.2c0.6,1.7,3,1.7,3.5,0l7.7-24c0.9-2.9,5.1-2.9,6.1,0L481.2,318.1z"/>
			<path class="st3" d="M534.6,292.5l-22,68.3c-0.2,0.5-0.6,0.8-1.1,0.8h-8.1c-0.5,0-1-0.3-1.1-0.8l-16.6-51.4v0l-5.4-16.9
				c-0.3-0.8,0.3-1.6,1.1-1.6h8.6c0.5,0,1,0.3,1.1,0.8l15.2,47.1c0.4,1.1,1.9,1.1,2.3,0l15.2-47.1c0.2-0.5,0.6-0.8,1.1-0.8h8.6
				C534.3,290.9,534.8,291.7,534.6,292.5z"/>
		</g>
		<g>
			<path class="st3" d="M631.7,351.8h35.5c1.3,0,2.3,1,2.3,2.3v5.3c0,1.3-1,2.3-2.3,2.3h-45.3c-1.3,0-2.3-1-2.3-2.3v-66.1
				c0-1.3,1-2.3,2.3-2.3h45.3c1.3,0,2.3,1,2.3,2.3v5.3c0,1.3-1,2.3-2.3,2.3h-35.5c-1.3,0-2.3,1-2.3,2.3v46.4
				C629.4,350.8,630.4,351.8,631.7,351.8z"/>
			<path class="st3" d="M663.3,324.6v5.3c0,1.3-1,2.3-2.3,2.3h-23.5c-1.3,0-2.3-1-2.3-2.3v-5.3c0-1.3,1-2.3,2.3-2.3H661
				C662.3,322.3,663.3,323.4,663.3,324.6z"/>
		</g>
		<g>
			<path class="st3" d="M1422.8,351.8h35.5c1.3,0,2.3,1,2.3,2.3v5.3c0,1.3-1,2.3-2.3,2.3h-45.3c-1.3,0-2.3-1-2.3-2.3v-66.1
				c0-1.3,1-2.3,2.3-2.3h45.3c1.3,0,2.3,1,2.3,2.3v5.3c0,1.3-1,2.3-2.3,2.3h-35.5c-1.3,0-2.3,1-2.3,2.3v46.4
				C1420.5,350.8,1421.5,351.8,1422.8,351.8z"/>
			<path class="st3" d="M1454.4,324.6v5.3c0,1.3-1,2.3-2.3,2.3h-23.5c-1.3,0-2.3-1-2.3-2.3v-5.3c0-1.3,1-2.3,2.3-2.3h23.5
				C1453.4,322.3,1454.4,323.4,1454.4,324.6z"/>
		</g>
		<g>
			<path class="st3" d="M791.3,293.2v66.1c0,1.3-1,2.3-2.3,2.3h-5.3c-1.3,0-2.3-1-2.3-2.3v-66.1c0-1.3,1-2.3,2.3-2.3h5.3
				C790.3,290.9,791.3,292,791.3,293.2z"/>
			<path class="st3" d="M824.2,354.1v5.3c0,1.3-1,2.3-2.3,2.3h-23.3c-1.3,0-2.3-1-2.3-2.3v-5.3c0-1.3,1-2.3,2.3-2.3h23.3
				C823.1,351.8,824.2,352.8,824.2,354.1z"/>
		</g>
		<g>
			<path class="st3" d="M1274.6,334.6l-2.4,2.6c-1.5,1.7-4.2,1.4-5.4-0.4l-3.3-5.1l-12.5-19.1c-0.5-0.8-1.8-0.4-1.8,0.5v46.2
				c0,1.3-1,2.3-2.3,2.3h-5.3c-1.3,0-2.3-1-2.3-2.3v-66.1c0-1.3,1-2.3,2.3-2.3h5.8c1.1,0,2.1,0.6,2.7,1.5l20.6,31.4l4.3,6.6
				C1275.8,331.7,1275.7,333.5,1274.6,334.6z"/>
			<path class="st3" d="M1310.6,293.2v66.1c0,1.3-1,2.3-2.3,2.3h-5.3c-1.3,0-2.3-1-2.3-2.3v-49.1c0-1.5-1.8-2.2-2.8-1.1l-15.5,17
				c-1,1.1-2.8,1-3.6-0.3l-2.5-3.8c-1-1.5-0.8-3.5,0.4-4.8l23.4-25.5c0.4-0.5,1-0.7,1.7-0.7h6.6
				C1309.6,290.9,1310.6,292,1310.6,293.2z"/>
		</g>
		<g>
			<path class="st3" d="M991,311.6l-3.6,2.1c-1.1,0.6-2.5,0.3-3.1-0.8c-4.6-7.9-13.2-13.2-23-13.2c-11.8,0-21.8,7.7-25.3,18.3
				c0,0,0,0,0,0.1c-0.9,2.5-2.8,4.8-5.4,4.5c-2.1-0.2-3.7-2.1-3.7-4.3v-0.1c3.6-15.7,17.7-27.3,34.4-27.3c13,0,24.4,7,30.5,17.5
				C992.5,309.6,992.1,311,991,311.6z"/>
			<path class="st3" d="M991,341c1.1,0.6,1.5,2.1,0.8,3.2c-6.1,10.5-17.5,17.5-30.5,17.5c-16,0-29.5-10.6-33.8-25.2c0,0,0,0,0,0
				c-0.2-2.3,2-4.2,4.3-4.2c2.3,0,4,1.8,4.9,4.1c0,0.1,0.1,0.2,0.1,0.3c0,0,0,0,0,0.1c4,9.6,13.5,16.3,24.5,16.3
				c9.8,0,18.4-5.3,23-13.2c0.6-1.1,2-1.4,3.1-0.8L991,341z"/>
		</g>
		<g>
			<path class="st3" d="M1113.9,355.7c-0.1,0.5-0.2,1.1-0.2,1.6c-0.3,2.2-2.5,3.6-4.6,3c-14.9-4.1-25.9-17.8-25.9-34.1
				c0-16.9,11.8-31,27.6-34.5c2.1-0.5,4.2,0.9,4.5,3c0.1,0.5,0.1,1,0.2,1.4c0.3,1.9-0.9,3.7-2.8,4.2c-11.8,2.7-20.7,13.2-20.7,25.9
				c0,12.1,8.1,22.4,19.2,25.5C1113,352.3,1114.1,353.9,1113.9,355.7z"/>
			<path class="st3" d="M1153.9,326.3c0,16.3-11,30-26,34.1c-2.1,0.6-4.3-0.8-4.6-3c-0.1-0.5-0.2-1.1-0.2-1.6
				c-0.3-1.8,0.9-3.4,2.6-3.9c11.2-3.1,19.3-13.4,19.3-25.5c0-11.8-7.7-21.7-18.2-25.2c-1.7-0.6-2.8-2.2-2.5-3.9
				c0.1-0.5,0.2-1.1,0.2-1.6c0.3-2.2,2.6-3.6,4.7-2.9C1143.5,297.1,1153.9,310.5,1153.9,326.3z"/>
		</g>
	</g>
</g>
</svg>
